<svg xmlns="http://www.w3.org/2000/svg" viewBox="0 0 64 64" width="64" height="64">
  <rect width="64" height="64" rx="14" fill="#4299e1"/>
  <!-- Candle body -->
  <rect x="26" y="26" width="12" height="26" rx="2" fill="#fdf6e3"/>
  <rect x="26" y="26" width="12" height="26" rx="2" fill="none" stroke="#e2d9c0" stroke-width="1"/>
  <!-- Wick -->
  <rect x="31" y="20" width="2" height="6" fill="#5a4a2f"/>
  <!-- Flame -->
  <path d="M32 6c4 5 7 8 7 12a7 7 0 0 1-14 0c0-3 2-5 4-8 1 2 2 3 3 3 1-2 0-5 0-7z" fill="#f6ad55"/>
  <path d="M32 12c2 3 4 5 4 7a4 4 0 0 1-8 0c0-2 2-4 4-7z" fill="#f6e05e"/>
  <!-- Candle holder -->
  <rect x="22" y="50" width="20" height="5" rx="2.5" fill="#cbd5e0"/>
</svg>
